# xmcd
#
# Track frame offsets: 
#        150
#        11998
#        26665
#        36332
#        51903
#        65019
#        82328
#        93549
#        110790
#        136840
#        149066
#        164319
#        178360
#        193764
#        206872
#        220443
#        233821
#        244498
#        253558
#        274089
#        283662
#        293761
#        322088
#
# Disc length: 4401 seconds
#
# Revision: 0
# Processed by: cddbd v1.5.2PL0 Copyright (c) Steve Scherf et al.
# Submitted via: ExactAudioCopyFreeDBPlugin 1.0
#
DISCID=86112f17
DTITLE=Dimitri van Toren - Liedjes om te koesteren
DYEAR=2017
DGENRE=Nederlands
TTITLE0=Ik heb een schip
TTITLE1=Mijn tuin
TTITLE2=Gratis belangeloos voor niets
TTITLE3=Marjolein
TTITLE4=Ballade van de kleinigheden
TTITLE5=Dierentuin
TTITLE6=Elektrische clown
TTITLE7=Ravi Shankar
TTITLE8=Vrede
TTITLE9=Opleving 1
TTITLE10=Opleving 2
TTITLE11=Leegte
TTITLE12=Misverstand
TTITLE13=Overgang
TTITLE14=Lied voor Bertie
TTITLE15=Opleving IV
TTITLE16=Opleving V
TTITLE17=Suzan jaag die katten uit je warme bed
TTITLE18=Voorschrift en leegte II
TTITLE19=Welkom
TTITLE20=Kruiweg (Bij de dood van 'K')
TTITLE21=Even Luisteren
TTITLE22=Duizend orkestenman
EXTD=
EXTT0=
EXTT1=
EXTT2=
EXTT3=
EXTT4=
EXTT5=
EXTT6=
EXTT7=
EXTT8=
EXTT9=
EXTT10=
EXTT11=
EXTT12=
EXTT13=
EXTT14=
EXTT15=
EXTT16=
EXTT17=
EXTT18=
EXTT19=
EXTT20=
EXTT21=
EXTT22=
PLAYORDER=
